<?xml version="1.0" standalone="no"?>
<!DOCTYPE svg PUBLIC "-//W3C//DTD SVG 20010904//EN"
 "http://www.w3.org/TR/2001/REC-SVG-20010904/DTD/svg10.dtd">
<svg version="1.0" xmlns="http://www.w3.org/2000/svg"
 width="512.000000pt" height="512.000000pt" viewBox="0 0 512.000000 512.000000"
 preserveAspectRatio="xMidYMid meet">
<metadata>
Created by potrace 1.14, written by Peter Selinger 2001-2017
</metadata>
<g transform="translate(0.000000,512.000000) scale(0.100000,-0.100000)"
fill="#000000" stroke="none">
<path d="M2385 3860 c-282 -27 -498 -119 -641 -273 -115 -123 -167 -265 -168
-457 0 -278 121 -476 368 -600 144 -73 293 -108 575 -136 253 -24 381 -66 439
-142 38 -50 43 -144 11 -202 -27 -48 -92 -94 -164 -116 -128 -39 -348 -36
-469 6 -97 33 -183 111 -215 195 l-19 50 -296 3 -296 2 0 -42 c0 -71 38 -206
81 -288 89 -173 245 -296 468 -371 313 -106 792 -97 1075 21 158 66 304 184
374 302 59 100 84 188 89 323 4 86 1 140 -10 192 -51 238 -233 415 -526 513
-123 41 -252 66 -447 85 -236 23 -328 50 -386 112 -51 54 -61 119 -29 188 24
52 53 78 126 111 116 53 353 42 460 -21 60 -35 121 -105 142 -164 l18 -51 299
0 298 0 -7 66 c-33 314 -226 531 -563 638 -159 50 -405 73 -587 56z"/>
</g>
</svg>
